<mxfile host="app.diagrams.net" agent="Mozilla/5.0 (Windows NT 10.0; Win64; x64) AppleWebKit/537.36 (KHTML, like Gecko) Chrome/129.0.0.0 Safari/537.36" version="24.7.16">
  <diagram name="Page-1" id="yzeGhx1E14W2DBAnpS_G">
    <mxGraphModel dx="1434" dy="772" grid="1" gridSize="10" guides="1" tooltips="1" connect="1" arrows="1" fold="1" page="1" pageScale="1" pageWidth="2339" pageHeight="3300" math="0" shadow="0">
      <root>
        <mxCell id="0" />
        <mxCell id="1" parent="0" />
        <mxCell id="h7MonCPcYvaqSdaSKmHR-2" value="" style="shape=umlLifeline;perimeter=lifelinePerimeter;whiteSpace=wrap;html=1;container=1;dropTarget=0;collapsible=0;recursiveResize=0;outlineConnect=0;portConstraint=eastwest;newEdgeStyle={&quot;curved&quot;:0,&quot;rounded&quot;:0};participant=umlActor;" vertex="1" parent="1">
          <mxGeometry x="220" y="70" width="30" height="390" as="geometry" />
        </mxCell>
        <mxCell id="h7MonCPcYvaqSdaSKmHR-3" value=":order" style="shape=umlLifeline;perimeter=lifelinePerimeter;whiteSpace=wrap;html=1;container=1;dropTarget=0;collapsible=0;recursiveResize=0;outlineConnect=0;portConstraint=eastwest;newEdgeStyle={&quot;curved&quot;:0,&quot;rounded&quot;:0};" vertex="1" parent="1">
          <mxGeometry x="480" y="70" width="100" height="450" as="geometry" />
        </mxCell>
        <mxCell id="h7MonCPcYvaqSdaSKmHR-4" value=":payment-service-api" style="shape=umlLifeline;perimeter=lifelinePerimeter;whiteSpace=wrap;html=1;container=1;dropTarget=0;collapsible=0;recursiveResize=0;outlineConnect=0;portConstraint=eastwest;newEdgeStyle={&quot;curved&quot;:0,&quot;rounded&quot;:0};" vertex="1" parent="1">
          <mxGeometry x="840" y="65" width="100" height="400" as="geometry" />
        </mxCell>
        <mxCell id="h7MonCPcYvaqSdaSKmHR-5" value=":logicstic-service-api" style="shape=umlLifeline;perimeter=lifelinePerimeter;whiteSpace=wrap;html=1;container=1;dropTarget=0;collapsible=0;recursiveResize=0;outlineConnect=0;portConstraint=eastwest;newEdgeStyle={&quot;curved&quot;:0,&quot;rounded&quot;:0};" vertex="1" parent="1">
          <mxGeometry x="1080" y="70" width="100" height="300" as="geometry" />
        </mxCell>
        <mxCell id="h7MonCPcYvaqSdaSKmHR-6" value="make order" style="html=1;verticalAlign=bottom;endArrow=block;curved=0;rounded=0;" edge="1" parent="1" source="h7MonCPcYvaqSdaSKmHR-2" target="h7MonCPcYvaqSdaSKmHR-3">
          <mxGeometry width="80" relative="1" as="geometry">
            <mxPoint x="234.5" y="170" as="sourcePoint" />
            <mxPoint x="529.5" y="170" as="targetPoint" />
            <Array as="points">
              <mxPoint x="390" y="160" />
            </Array>
          </mxGeometry>
        </mxCell>
        <mxCell id="h7MonCPcYvaqSdaSKmHR-7" value="verify payment" style="html=1;verticalAlign=bottom;endArrow=block;curved=0;rounded=0;" edge="1" parent="1" source="h7MonCPcYvaqSdaSKmHR-3" target="h7MonCPcYvaqSdaSKmHR-4">
          <mxGeometry x="0.0028" width="80" relative="1" as="geometry">
            <mxPoint x="690" y="400" as="sourcePoint" />
            <mxPoint x="770" y="400" as="targetPoint" />
            <Array as="points">
              <mxPoint x="660" y="330" />
            </Array>
            <mxPoint as="offset" />
          </mxGeometry>
        </mxCell>
        <mxCell id="h7MonCPcYvaqSdaSKmHR-8" value="payment successful" style="html=1;verticalAlign=bottom;endArrow=block;curved=0;rounded=0;" edge="1" parent="1" source="h7MonCPcYvaqSdaSKmHR-4" target="h7MonCPcYvaqSdaSKmHR-2">
          <mxGeometry width="80" relative="1" as="geometry">
            <mxPoint x="690" y="400" as="sourcePoint" />
            <mxPoint x="770" y="400" as="targetPoint" />
            <Array as="points">
              <mxPoint x="610" y="410" />
            </Array>
          </mxGeometry>
        </mxCell>
        <mxCell id="h7MonCPcYvaqSdaSKmHR-10" value="logicstic-option &amp;amp; enter payment methods" style="html=1;verticalAlign=bottom;endArrow=block;curved=0;rounded=0;" edge="1" parent="1" source="h7MonCPcYvaqSdaSKmHR-3" target="h7MonCPcYvaqSdaSKmHR-2">
          <mxGeometry x="0.0034" width="80" relative="1" as="geometry">
            <mxPoint x="690" y="400" as="sourcePoint" />
            <mxPoint x="770" y="400" as="targetPoint" />
            <Array as="points">
              <mxPoint x="380" y="220" />
            </Array>
            <mxPoint as="offset" />
          </mxGeometry>
        </mxCell>
      </root>
    </mxGraphModel>
  </diagram>
</mxfile>
